<svg width="32" height="32" viewBox="0 0 32 32" fill="none" xmlns="http://www.w3.org/2000/svg">
<path d="M0 4C0 1.79086 1.79086 0 4 0H28C30.2091 0 32 1.79086 32 4V28C32 30.2091 30.2091 32 28 32H4C1.79086 32 0 30.2091 0 28V4Z" fill="#1DB954"/>
<g filter="url(#filter0_i)">
<path d="M18.8482 22.2504C19.374 22.7762 19.9437 23.0829 20.5571 23.0829C21.1268 23.0829 21.6964 22.7762 22.2222 22.2504L23.9311 20.5415C24.5008 19.9718 24.7637 19.4022 24.7637 18.8325C24.7637 18.2629 24.5008 17.6933 23.9311 17.1236L22.2222 15.4147C22.0031 15.1518 21.8717 14.8012 21.8717 14.4069C21.8717 13.0485 23.23 10.9452 25.3333 9.32394C24.0626 8.7543 23.7997 8.66666 23.5806 8.66666C22.5728 8.66666 17.0516 13.3552 16.3505 16.8169C16.2191 17.2989 16.1753 17.7371 16.1753 18.0876C16.1753 19.2269 16.5696 20.0156 17.0955 20.5415L18.8482 22.2504ZM9.29578 22.2504C9.86542 22.82 10.4351 23.0829 11.0047 23.0829C11.5743 23.0829 12.1878 22.82 12.7136 22.2504L14.4225 20.5415C14.9922 19.9718 15.2551 19.4022 15.2551 18.8325C15.2551 18.2629 14.9922 17.6933 14.4225 17.1236L12.7574 15.4585L12.7136 15.4147C12.4507 15.1518 12.3631 14.8451 12.3631 14.4069C12.3631 13.0485 13.7214 10.9452 15.8247 9.32394C14.554 8.7543 14.2911 8.66666 14.072 8.66666C13.0642 8.66666 7.54304 13.3552 6.79812 16.8169C6.71049 17.2989 6.66667 17.7371 6.66667 18.0876C6.66667 19.2707 7.06103 20.0156 7.58686 20.5415L9.29578 22.2504Z" fill="white"/>
</g>
<defs>
<filter id="filter0_i" x="0" y="0" width="32" height="33" filterUnits="userSpaceOnUse" color-interpolation-filters="sRGB">
<feFlood flood-opacity="0" result="BackgroundImageFix"/>
<feBlend mode="normal" in="SourceGraphic" in2="BackgroundImageFix" result="shape"/>
<feColorMatrix in="SourceAlpha" type="matrix" values="0 0 0 0 0 0 0 0 0 0 0 0 0 0 0 0 0 0 127 0" result="hardAlpha"/>
<feOffset dy="1"/>
<feGaussianBlur stdDeviation="1"/>
<feComposite in2="hardAlpha" operator="arithmetic" k2="-1" k3="1"/>
<feColorMatrix type="matrix" values="0 0 0 0 0 0 0 0 0 0 0 0 0 0 0 0 0 0 0.12 0"/>
<feBlend mode="normal" in2="shape" result="effect1_innerShadow"/>
</filter>
</defs>
</svg>
