<svg width="128" height="128" viewBox="0 0 128 128" fill="none" xmlns="http://www.w3.org/2000/svg">
<rect width="128" height="128" fill="white" fill-opacity="0.2"/>
<path fill-rule="evenodd" clip-rule="evenodd" d="M64 97C45.7746 97 31 82.2254 31 64C31 45.7746 45.7746 31 64 31C82.2254 31 97 45.7746 97 64C97 82.2254 82.2254 97 64 97ZM64 91C78.9117 91 91 78.9117 91 64C91 49.0883 78.9117 37 64 37C49.0883 37 37 49.0883 37 64C37 78.9117 49.0883 91 64 91ZM64 43V49C72.2843 49 79 55.7157 79 64H85C85 52.402 75.598 43 64 43ZM64 73C59.0294 73 55 68.9706 55 64C55 59.0294 59.0294 55 64 55C68.9706 55 73 59.0294 73 64C73 68.9706 68.9706 73 64 73ZM67 64C67 65.6569 65.6569 67 64 67C62.3431 67 61 65.6569 61 64C61 62.3431 62.3431 61 64 61C65.6569 61 67 62.3431 67 64Z" fill="white"/>
</svg>
