<svg width="128" height="128" viewBox="0 0 128 128" fill="none" xmlns="http://www.w3.org/2000/svg">
<rect width="128" height="128" fill="white" fill-opacity="0.2"/>
<path fill-rule="evenodd" clip-rule="evenodd" d="M82 91C85.3137 91 88 88.3137 88 85H91C94.3137 85 97 82.3137 97 79V49C97 45.6863 94.3137 43 91 43H88C88 39.6863 85.3137 37 82 37H46C42.6863 37 40 39.6863 40 43H37C33.6863 43 31 45.6863 31 49V79C31 82.3137 33.6863 85 37 85H40C40 88.3137 42.6863 91 46 91H82ZM82 43V85H46V43H82ZM64 64.4214V49.3945L77.6641 58.5039L74.3359 63.4962L70 60.6056V71.5C70 75.8603 65.8137 79 61 79C56.1863 79 52 75.8603 52 71.5C52 67.1397 56.1863 64 61 64C62.0414 64 63.0534 64.1469 64 64.4214ZM37 49H40V79H37V49ZM88 49V79H91V49H88ZM64 71.5C64 72.1103 62.8137 73 61 73C59.1863 73 58 72.1103 58 71.5C58 70.8897 59.1863 70 61 70C62.8137 70 64 70.8897 64 71.5Z" fill="white"/>
</svg>
