<svg width="32" height="32" viewBox="0 0 32 32" fill="none" xmlns="http://www.w3.org/2000/svg">
<path fill-rule="evenodd" clip-rule="evenodd" d="M24 28C25.4728 28 26.6667 26.8061 26.6667 25.3333H28C29.4728 25.3333 30.6667 24.1394 30.6667 22.6667V9.33333C30.6667 7.86057 29.4728 6.66667 28 6.66667H26.6667C26.6667 5.19391 25.4728 4 24 4H8C6.52724 4 5.33333 5.19391 5.33333 6.66667H4C2.52724 6.66667 1.33333 7.86057 1.33333 9.33333V22.6667C1.33333 24.1394 2.52724 25.3333 4 25.3333H5.33333C5.33333 26.8061 6.52724 28 8 28H24ZM24 6.66667V25.3333H8V6.66667H24ZM16 16.1873V9.50865L22.0729 13.5573L20.5937 15.7761L18.6667 14.4914V19.3333C18.6667 21.2712 16.8061 22.6667 14.6667 22.6667C12.5272 22.6667 10.6667 21.2712 10.6667 19.3333C10.6667 17.3954 12.5272 16 14.6667 16C15.1295 16 15.5793 16.0653 16 16.1873ZM4 9.33333H5.33333V22.6667H4V9.33333ZM26.6667 9.33333V22.6667H28V9.33333H26.6667ZM16 19.3333C16 19.6046 15.4728 20 14.6667 20C13.8606 20 13.3333 19.6046 13.3333 19.3333C13.3333 19.0621 13.8606 18.6667 14.6667 18.6667C15.4728 18.6667 16 19.0621 16 19.3333Z" fill="white"/>
</svg>
