<svg width="32" height="32" viewBox="0 0 32 32" fill="none" xmlns="http://www.w3.org/2000/svg">
<path fill-rule="evenodd" clip-rule="evenodd" d="M2.66666 8.00001C2.66666 9.47277 3.86057 10.6667 5.33333 10.6667C6.80609 10.6667 8 9.47277 8 8.00001C8 6.52725 6.80609 5.33334 5.33333 5.33334C3.86057 5.33334 2.66666 6.52725 2.66666 8.00001ZM29.3333 6.66668V9.33334H10.6667V6.66668H29.3333ZM29.3333 17.3333V14.6667H10.6667V17.3333H29.3333ZM10.6667 25.3333H29.3333V22.6667H10.6667V25.3333ZM2.66666 24C2.66666 25.4728 3.86057 26.6667 5.33333 26.6667C6.80609 26.6667 8 25.4728 8 24C8 22.5273 6.80609 21.3333 5.33333 21.3333C3.86057 21.3333 2.66666 22.5273 2.66666 24ZM5.33333 18.6667C3.86057 18.6667 2.66666 17.4728 2.66666 16C2.66666 14.5273 3.86057 13.3333 5.33333 13.3333C6.80609 13.3333 8 14.5273 8 16C8 17.4728 6.80609 18.6667 5.33333 18.6667Z" fill="white"/>
</svg>
