<svg width="32" height="32" viewBox="0 0 32 32" fill="none" xmlns="http://www.w3.org/2000/svg">
<path fill-rule="evenodd" clip-rule="evenodd" d="M16 30.6667C7.89982 30.6667 1.33333 24.1002 1.33333 16C1.33333 7.89982 7.89982 1.33333 16 1.33333C24.1002 1.33333 30.6667 7.89982 30.6667 16C30.6667 24.1002 24.1002 30.6667 16 30.6667ZM25.866 22.8329C27.2115 20.8938 28 18.539 28 16C28 9.37258 22.6274 4 16 4C9.37258 4 4 9.37258 4 16C4 18.539 4.78851 20.8938 6.13401 22.8329C7.6346 20.8508 11.1608 20 16 20C20.8392 20 24.3654 20.8508 25.866 22.8329ZM23.9529 24.9864C23.5627 23.5831 20.7592 22.6667 16 22.6667C11.2408 22.6667 8.43734 23.5831 8.04709 24.9864C10.1644 26.8616 12.9493 28 16 28C19.0507 28 21.8356 26.8616 23.9529 24.9864ZM16 20C13.0145 20 10.6667 17.9032 10.6667 13.3333C10.6667 10.341 12.7721 8 16 8C19.2189 8 21.3333 10.5621 21.3333 13.6C21.3333 17.9728 18.9574 20 16 20ZM13.3333 13.3333C13.3333 16.359 14.4243 17.3333 16 17.3333C17.5703 17.3333 18.6667 16.3979 18.6667 13.6C18.6667 11.9339 17.6209 10.6667 16 10.6667C14.3117 10.6667 13.3333 11.7544 13.3333 13.3333Z" fill="white"/>
</svg>
