<svg width="24" height="24" viewBox="0 0 24 24" fill="none" xmlns="http://www.w3.org/2000/svg">
<path d="M4.60156 2.00977C4.48967 1.99551 4.37487 1.99871 4.25781 2.01172C4.23937 2.01377 4.22165 2.01281 4.20312 2.01563C4.0684 2.02762 3.9375 2.06682 3.81836 2.13086C3.7442 2.17024 3.6753 2.2188 3.61328 2.27539C3.22091 2.57065 3 3.07197 3 3.50391V11.9629V20.5918C3 21.0236 3.2061 21.5754 3.70117 21.8438C4.19625 22.1121 4.7566 21.9904 5.125 21.7676C5.12565 21.7669 5.1263 21.7663 5.12695 21.7656C5.06725 21.802 5.40347 21.6064 5.82812 21.3652C6.25278 21.1241 6.84326 20.7886 7.54297 20.3926C8.94238 19.6005 10.7814 18.5609 12.623 17.5195C14.4647 16.4782 16.3095 15.4366 17.7188 14.6387C18.4234 14.2397 19.0181 13.9023 19.4512 13.6562C19.8834 13.4106 20.0964 13.29 20.2266 13.2109C20.6146 12.9757 21.0079 12.5215 21 11.9355C20.9921 11.3496 20.598 10.9223 20.2246 10.7109C20.0575 10.6166 16.4086 8.55497 12.7578 6.49023C10.9324 5.45787 9.10693 4.42468 7.71289 3.63477C7.01587 3.23981 6.42602 2.90435 6 2.66211C5.57398 2.41987 5.25252 2.2341 5.28516 2.25391C5.28451 2.25391 5.28385 2.25391 5.2832 2.25391C5.08613 2.13484 4.85205 2.04168 4.60156 2.00977ZM5 5.34961L10.7559 11.957L5 18.5664V11.9629V5.34961ZM8.5957 6.43359C9.63777 7.02322 10.6241 7.58045 11.7734 8.23047C12.503 8.6431 12.6171 8.70767 13.2656 9.07422L12.082 10.4336L8.5957 6.43359ZM15.041 10.0762C16.2048 10.7336 17.9637 11.7283 18.3789 11.9629C17.9535 12.2046 17.4026 12.519 16.7324 12.8984C16.2668 13.1621 15.5938 13.5433 15.0488 13.8516C15.0295 13.8225 15.0086 13.7945 14.9863 13.7676L13.4082 11.957L14.9863 10.1445C15.0055 10.1226 15.0238 10.0997 15.041 10.0762ZM12.082 13.4805L13.2773 14.8516C12.6989 15.1786 12.2313 15.4442 11.6387 15.7793C10.5248 16.4091 9.58164 16.9434 8.56641 17.5176L12.082 13.4805Z" fill="white"/>
</svg>
