<svg width="24" height="24" viewBox="0 0 24 24" fill="none" xmlns="http://www.w3.org/2000/svg">
<path d="M15.9844 2C14.9204 2.114 13.7509 2.79508 13.0059 3.70508C12.3679 4.50008 11.8358 5.75 12.0488 7C13.1118 7 14.2814 6.20492 15.0254 5.29492C15.6644 4.38592 16.0904 3.25 15.9844 2ZM8.35352 7C6.72852 7 4.98931 7.978 3.94531 9.5C2.43731 11.674 2.66947 15.8042 5.10547 19.2832C6.03347 20.5872 7.19317 22 8.70117 22C10.0932 22 10.4418 21.1309 12.2988 21.1309C14.1548 21.1309 14.5035 22 15.8965 22C17.5205 22 18.6804 20.4778 19.6094 19.1738C20.3054 18.3038 20.538 17.7612 21.002 16.7832C17.405 15.4792 16.8237 10.805 20.3047 8.95703C19.1437 7.76103 17.6352 7 16.2422 7C14.3862 7 13.5758 8 12.2988 8C11.0218 8 9.97852 7 8.35352 7ZM8.35352 9C8.82752 9 9.26627 9.17739 9.82227 9.40039C10.4863 9.66739 11.3108 10 12.2988 10C13.2848 10 14.0539 9.67316 14.6719 9.41016C15.2309 9.17216 15.6352 9 16.2422 9C16.5102 9 16.8007 9.05516 17.0957 9.16016C16.2937 10.2872 15.8902 11.654 15.9902 13.082C16.1152 14.864 16.9701 16.4498 18.3301 17.5488C18.2471 17.6668 18.1559 17.7888 18.0469 17.9238L18.0117 17.9688L17.9785 18.0137C17.5205 18.6587 16.5645 20 15.8945 20C15.6905 20 15.5945 19.9642 15.1895 19.7832C14.6035 19.5232 13.7178 19.1309 12.2988 19.1309C10.8798 19.1309 9.9932 19.5232 9.4082 19.7832C9.0022 19.9642 8.90517 20 8.70117 20C8.28217 20 7.62114 19.3678 6.74414 18.1348C4.77214 15.3198 4.6097 12.0519 5.5957 10.6309C6.2547 9.67086 7.38852 9 8.35352 9Z" fill="white"/>
</svg>
