<svg width="96" height="96" viewBox="0 0 96 96" fill="none" xmlns="http://www.w3.org/2000/svg">
<rect width="96" height="96" fill="#1DB954"/>
<path d="M50.4009 51.864C50.2569 51.768 50.1129 51.72 49.9689 51.72C49.7289 51.72 49.5369 51.864 49.3929 52.152L49.2489 52.392C45.0249 59.304 41.1849 59.64 37.7769 59.64H35.9529C33.4569 59.544 32.6409 57.624 32.6409 55.08V29.928H35.5209C36.0009 29.928 36.8649 29.688 36.8649 29.208V27.768C36.8649 27.288 36.4809 27.048 36.0009 27.048H21.4569C20.9769 27.048 20.7369 27.288 20.7369 27.768V29.208C20.7369 29.688 20.9769 29.928 21.4569 29.928H21.5049C24.0969 29.928 24.9609 31.896 24.9609 34.488V55.608C24.9609 58.2 24.0969 60.168 21.5049 60.168H21.4569C20.9769 60.168 20.7369 60.408 20.7369 60.888V62.328C20.7369 62.808 20.9769 63.048 21.4569 63.048H45.5049C45.8409 63.048 46.1289 63.048 46.4169 63.288L46.7049 63.528C46.8489 63.624 46.9929 63.72 47.1369 63.72C47.3769 63.72 47.5689 63.528 47.7129 63.288L52.1769 53.784C52.2729 53.64 52.3209 53.496 52.3209 53.352C52.3209 53.112 52.1769 52.92 51.9369 52.776L50.4009 51.864Z" fill="white"/>
<path d="M67.4251 39C66.9451 39 66.7051 39.24 66.7051 39.72V41.16C66.7051 41.64 66.9451 41.88 67.4251 41.88H68.2411C69.0571 41.88 69.3451 42.264 69.3451 42.888C69.3451 43.704 68.8171 44.952 68.1931 46.296L64.6891 53.448L61.4731 46.392C60.8971 45.144 60.4171 43.992 60.4171 43.128C60.4171 42.36 60.8011 41.88 61.9531 41.88H62.0491C62.4811 41.88 62.7211 41.64 62.7211 41.16V39.72C62.7211 39.24 62.4811 39 62.0491 39H50.9611C50.4811 39 50.2411 39.24 50.2411 39.72V41.16C50.2411 41.64 50.4811 41.88 50.9611 41.88H51.0571C52.2571 41.88 52.6891 42.552 53.8411 44.904L60.8971 59.544L55.5211 71.016C55.3291 71.448 55.4251 71.784 55.8571 71.976L58.3051 73.224C58.7371 73.416 59.0731 73.272 59.2651 72.888L73.1851 44.904C74.2891 42.504 74.9611 41.88 76.0171 41.88H76.6891C77.1691 41.88 77.4091 41.64 77.4091 41.16V39.72C77.4091 39.24 77.1691 39 76.6891 39H67.4251Z" fill="white"/>
</svg>
