<svg width="96" height="96" viewBox="0 0 96 96" fill="none" xmlns="http://www.w3.org/2000/svg">
<path d="M0 4C0 1.79086 1.79086 0 4 0H92C94.2091 0 96 1.79086 96 4V92C96 94.2091 94.2091 96 92 96H4C1.79086 96 0 94.2091 0 92V4Z" fill="#1DB954"/>
<g filter="url(#filter0_i)">
<path d="M56.5446 66.7512C58.1221 68.3286 59.831 69.2488 61.6714 69.2488C63.3803 69.2488 65.0892 68.3286 66.6667 66.7512L71.7934 61.6244C73.5023 59.9155 74.2911 58.2066 74.2911 56.4976C74.2911 54.7887 73.5023 53.0798 71.7934 51.3709L66.6667 46.2441C66.0094 45.4554 65.615 44.4038 65.615 43.2207C65.615 39.1455 69.6901 32.8357 76 27.9718C72.1878 26.2629 71.3991 26 70.7418 26C67.7183 26 51.1549 40.0657 49.0516 50.4507C48.6573 51.8967 48.5258 53.2113 48.5258 54.2629C48.5258 57.6807 49.7089 60.0469 51.2864 61.6244L56.5446 66.7512ZM27.8873 66.7512C29.5962 68.4601 31.3052 69.2488 33.0141 69.2488C34.723 69.2488 36.5634 68.4601 38.1408 66.7512L43.2676 61.6244C44.9765 59.9155 45.7653 58.2066 45.7653 56.4976C45.7653 54.7887 44.9765 53.0798 43.2676 51.3709L38.2723 46.3756L38.1408 46.2441C37.3521 45.4554 37.0892 44.5352 37.0892 43.2207C37.0892 39.1455 41.1643 32.8357 47.4742 27.9718C43.662 26.2629 42.8732 26 42.216 26C39.1925 26 22.6291 40.0657 20.3944 50.4507C20.1315 51.8967 20 53.2113 20 54.2629C20 57.8122 21.1831 60.0469 22.7606 61.6244L27.8873 66.7512Z" fill="white"/>
</g>
<defs>
<filter id="filter0_i" x="0" y="0" width="96" height="97" filterUnits="userSpaceOnUse" color-interpolation-filters="sRGB">
<feFlood flood-opacity="0" result="BackgroundImageFix"/>
<feBlend mode="normal" in="SourceGraphic" in2="BackgroundImageFix" result="shape"/>
<feColorMatrix in="SourceAlpha" type="matrix" values="0 0 0 0 0 0 0 0 0 0 0 0 0 0 0 0 0 0 127 0" result="hardAlpha"/>
<feOffset dy="1"/>
<feGaussianBlur stdDeviation="1"/>
<feComposite in2="hardAlpha" operator="arithmetic" k2="-1" k3="1"/>
<feColorMatrix type="matrix" values="0 0 0 0 0 0 0 0 0 0 0 0 0 0 0 0 0 0 0.12 0"/>
<feBlend mode="normal" in2="shape" result="effect1_innerShadow"/>
</filter>
</defs>
</svg>
