<svg width="72" height="38" viewBox="0 0 72 38" fill="none" xmlns="http://www.w3.org/2000/svg">
<g filter="url(#filter0_i)">
<path fill-rule="evenodd" clip-rule="evenodd" d="M20.6947 23.4781C19.7808 23.4781 18.9321 23.0212 18.1487 22.2378L15.5374 19.6917C14.754 18.9083 14.1664 17.7332 14.1664 16.0359C14.1664 15.5136 14.2317 14.8608 14.4276 14.1427C15.4721 8.98529 23.6978 2 25.1993 2C25.5257 2 25.9174 2.13056 27.8106 2.97925C24.677 5.39472 22.6532 8.52831 22.6532 10.5521C22.6532 11.1396 22.8491 11.6619 23.1755 12.0536L25.7215 14.5996C26.5702 15.4483 26.9619 16.297 26.9619 17.1457C26.9619 17.9944 26.5702 18.843 25.7215 19.6917L23.1755 22.2378C22.3921 23.0212 21.5434 23.4781 20.6947 23.4781ZM6.46303 23.4781C5.61435 23.4781 4.76567 23.0864 3.91699 22.2378L1.37095 19.6917C0.587548 18.9083 0 17.7985 0 16.0359C0 15.5136 0.065283 14.8608 0.195849 14.1427C1.30566 8.98529 9.53133 2 11.0328 2C11.3593 2 11.751 2.13056 13.6442 2.97925C10.5106 5.39472 8.4868 8.52831 8.4868 10.5521C8.4868 11.2049 8.61737 11.6619 9.00907 12.0536L9.07435 12.1189L11.5551 14.5996C12.4038 15.4483 12.7955 16.297 12.7955 17.1457C12.7955 17.9944 12.4038 18.843 11.5551 19.6917L9.00907 22.2378C8.22567 23.0864 7.31171 23.4781 6.46303 23.4781ZM51.1159 16.5219C52.0298 16.5219 52.8785 16.9788 53.6619 17.7622L56.2732 20.3083C57.0566 21.0917 57.6442 22.2668 57.6442 23.9641C57.6442 24.4864 57.5789 25.1392 57.383 25.8573C56.3385 31.0147 48.1128 38 46.6113 38C46.2849 38 45.8932 37.8694 44 37.0208C47.1336 34.6053 49.1574 31.4717 49.1574 29.4479C49.1574 28.8604 48.9615 28.3381 48.6351 27.9464L46.0891 25.4004C45.2404 24.5517 44.8487 23.703 44.8487 22.8543C44.8487 22.0056 45.2404 21.157 46.0891 20.3083L48.6351 17.7622C49.4185 16.9788 50.2672 16.5219 51.1159 16.5219ZM65.3476 16.5219C66.1963 16.5219 67.0449 16.9136 67.8936 17.7622L70.4397 20.3083C71.2231 21.0917 71.8106 22.2015 71.8106 23.9641C71.8106 24.4864 71.7453 25.1392 71.6148 25.8573C70.5049 31.0147 62.2793 38 60.7778 38C60.4513 38 60.0596 37.8694 58.1664 37.0208C61.3 34.6053 63.3238 31.4717 63.3238 29.4479C63.3238 28.7951 63.1932 28.3381 62.8015 27.9464L62.7363 27.8811L60.2555 25.4004C59.4068 24.5517 59.0151 23.703 59.0151 22.8543C59.0151 22.0056 59.4068 21.157 60.2555 20.3083L62.8015 17.7622C63.5849 16.9136 64.4989 16.5219 65.3476 16.5219Z" fill="black" fill-opacity="0.12"/>
<line x1="18.3338" y1="37.2929" x2="54.2377" y2="1.38901" stroke="black" stroke-opacity="0.12" stroke-width="2"/>
</g>
<defs>
<filter id="filter0_i" x="0" y="0.681885" width="72" height="38.3181" filterUnits="userSpaceOnUse" color-interpolation-filters="sRGB">
<feFlood flood-opacity="0" result="BackgroundImageFix"/>
<feBlend mode="normal" in="SourceGraphic" in2="BackgroundImageFix" result="shape"/>
<feColorMatrix in="SourceAlpha" type="matrix" values="0 0 0 0 0 0 0 0 0 0 0 0 0 0 0 0 0 0 127 0" result="hardAlpha"/>
<feOffset dy="1"/>
<feGaussianBlur stdDeviation="1"/>
<feComposite in2="hardAlpha" operator="arithmetic" k2="-1" k3="1"/>
<feColorMatrix type="matrix" values="0 0 0 0 0 0 0 0 0 0 0 0 0 0 0 0 0 0 0.25 0"/>
<feBlend mode="normal" in2="shape" result="effect1_innerShadow"/>
</filter>
</defs>
</svg>
