<svg width="32" height="32" viewBox="0 0 32 32" fill="none" xmlns="http://www.w3.org/2000/svg">
<path fill-rule="evenodd" clip-rule="evenodd" d="M16 30.6667C7.89982 30.6667 1.33333 24.1002 1.33333 16C1.33333 7.89982 7.89982 1.33333 16 1.33333C24.1002 1.33333 30.6667 7.89982 30.6667 16C30.6667 24.1002 24.1002 30.6667 16 30.6667ZM16 28C22.6274 28 28 22.6274 28 16C28 9.37258 22.6274 3.99999 16 3.99999C9.37258 3.99999 4 9.37258 4 16C4 22.6274 9.37258 28 16 28ZM11.6095 22.2761L16 17.8856L20.3905 22.2761L22.2761 20.3905L17.8856 16L22.2761 11.6095L20.3905 9.72385L16 14.1144L11.6095 9.72385L9.72386 11.6095L14.1144 16L9.72386 20.3905L11.6095 22.2761Z" fill="white"/>
</svg>
