<svg width="32" height="32" viewBox="0 0 32 32" fill="none" xmlns="http://www.w3.org/2000/svg">
<path fill-rule="evenodd" clip-rule="evenodd" d="M13.3333 20V22.6667H8C4.3181 22.6667 1.33333 19.6819 1.33333 16C1.33333 12.3181 4.3181 9.33334 8 9.33334H13.3333V12H8C5.79086 12 4 13.7909 4 16C4 18.2091 5.79086 20 8 20H13.3333ZM18.6667 12V9.33334H24C27.6819 9.33334 30.6667 12.3181 30.6667 16C30.6667 19.6819 27.6819 22.6667 24 22.6667H18.6667V20H24C26.2091 20 28 18.2091 28 16C28 13.7909 26.2091 12 24 12H18.6667ZM9.33333 14.6667V17.3333H22.6667V14.6667H9.33333Z" fill="white"/>
</svg>
