<svg width="32" height="32" viewBox="0 0 32 32" fill="none" xmlns="http://www.w3.org/2000/svg">
<path fill-rule="evenodd" clip-rule="evenodd" d="M16 30.6667C7.89982 30.6667 1.33333 24.1002 1.33333 16C1.33333 7.89982 7.89982 1.33333 16 1.33333C24.1002 1.33333 30.6667 7.89982 30.6667 16C30.6667 24.1002 24.1002 30.6667 16 30.6667ZM16 28C22.6274 28 28 22.6274 28 16C28 9.37258 22.6274 3.99999 16 3.99999C9.37258 3.99999 4 9.37258 4 16C4 22.6274 9.37258 28 16 28ZM16 6.66666V9.33333C19.6819 9.33333 22.6667 12.3181 22.6667 16H25.3333C25.3333 10.8453 21.1547 6.66666 16 6.66666ZM16 20C13.7909 20 12 18.2091 12 16C12 13.7909 13.7909 12 16 12C18.2091 12 20 13.7909 20 16C20 18.2091 18.2091 20 16 20ZM17.3333 16C17.3333 16.7364 16.7364 17.3333 16 17.3333C15.2636 17.3333 14.6667 16.7364 14.6667 16C14.6667 15.2636 15.2636 14.6667 16 14.6667C16.7364 14.6667 17.3333 15.2636 17.3333 16Z" fill="white"/>
</svg>
